<svg width="50" height="50" fill="none" xmlns="http://www.w3.org/2000/svg"><g filter="url(#a)" stroke="#4C4CFF" stroke-linecap="round" stroke-linejoin="round"><path d="M40.51 37.63c.5-.61.05-1.49-.74-1.5a353.5 353.5 0 0 0-29.01.65c-.8.05-1.2.95-.68 1.54 3.67 4.1 9 6.68 14.92 6.68 6.26 0 11.84-2.87 15.51-7.37ZM7.64 15.06c-.39.68.19 1.47.97 1.38 11.56-1.4 20.09-1.8 32.18-1.07.78.05 1.31-.78.88-1.44a19.99 19.99 0 0 0-34.03 1.13Z"/></g><g filter="url(#b)" stroke="#4C4CFF" stroke-linecap="round" stroke-linejoin="round"><path d="M40.51 37.63c.5-.61.05-1.49-.74-1.5a353.5 353.5 0 0 0-29.01.65c-.8.05-1.2.95-.68 1.54 3.67 4.1 9 6.68 14.92 6.68 6.26 0 11.84-2.87 15.51-7.37ZM7.64 15.06c-.39.68.19 1.47.97 1.38 11.56-1.4 20.09-1.8 32.18-1.07.78.05 1.31-.78.88-1.44a19.99 19.99 0 0 0-34.03 1.13Z"/></g><path d="M40.51 37.63c.5-.61.05-1.49-.74-1.5a353.5 353.5 0 0 0-29.01.65c-.8.05-1.2.95-.68 1.54 3.67 4.1 9 6.68 14.92 6.68 6.26 0 11.84-2.87 15.51-7.37ZM7.64 15.06c-.39.68.19 1.47.97 1.38 11.56-1.4 20.09-1.8 32.18-1.07.78.05 1.31-.78.88-1.44a19.99 19.99 0 0 0-34.03 1.13Z" stroke="#4C4CFF" stroke-linecap="round" stroke-linejoin="round"/><path d="M40.51 37.63c.5-.61.05-1.49-.74-1.5a353.5 353.5 0 0 0-29.01.65c-.8.05-1.2.95-.68 1.54 3.67 4.1 9 6.68 14.92 6.68 6.26 0 11.84-2.87 15.51-7.37ZM7.64 15.06c-.39.68.19 1.47.97 1.38 11.56-1.4 20.09-1.8 32.18-1.07.78.05 1.31-.78.88-1.44a19.99 19.99 0 0 0-34.03 1.13Z" stroke="#fff" stroke-width=".5" stroke-linecap="round" stroke-linejoin="round"/><g filter="url(#c)"><path d="M44.86 27.47a1.86 1.86 0 0 0-1.74-2.04 251.31 251.31 0 0 0-36.23-.5c-1.06.05-1.9.93-1.8 1.99.14 1.5.45 2.95.9 4.33.26.8 1.04 1.3 1.88 1.26 12.51-.43 22.19-.46 34.33-.14.84.03 1.61-.47 1.87-1.27.37-1.17.64-2.38.79-3.63Z" stroke="#E33CD5" stroke-linecap="round" stroke-linejoin="round"/></g><g filter="url(#d)"><path d="M44.86 27.47a1.86 1.86 0 0 0-1.74-2.04 251.31 251.31 0 0 0-36.23-.5c-1.06.05-1.9.93-1.8 1.99.14 1.5.45 2.95.9 4.33.26.8 1.04 1.3 1.88 1.26 12.51-.43 22.19-.46 34.33-.14.84.03 1.61-.47 1.87-1.27.37-1.17.64-2.38.79-3.63Z" stroke="#E33CD5" stroke-linecap="round" stroke-linejoin="round"/></g><path d="M44.86 27.47a1.86 1.86 0 0 0-1.74-2.04 251.31 251.31 0 0 0-36.23-.5c-1.06.05-1.9.93-1.8 1.99.14 1.5.45 2.95.9 4.33.26.8 1.04 1.3 1.88 1.26 12.51-.43 22.19-.46 34.33-.14.84.03 1.61-.47 1.87-1.27.37-1.17.64-2.38.79-3.63Z" stroke="#E33CD5" stroke-linecap="round" stroke-linejoin="round"/><path d="M44.86 27.47a1.86 1.86 0 0 0-1.74-2.04 251.31 251.31 0 0 0-36.23-.5c-1.06.05-1.9.93-1.8 1.99.14 1.5.45 2.95.9 4.33.26.8 1.04 1.3 1.88 1.26 12.51-.43 22.19-.46 34.33-.14.84.03 1.61-.47 1.87-1.27.37-1.17.64-2.38.79-3.63Z" stroke="#fff" stroke-width=".5" stroke-linecap="round" stroke-linejoin="round"/><g filter="url(#e)"><path d="M5 20.5c2.67-2 5.33-2 8 0s5.33 2 8 0 5.33-2 8 0 5.33 2 8 0 5.33-2 8 0" stroke="#0CC" stroke-linecap="round" stroke-linejoin="round"/></g><g filter="url(#f)"><path d="M5 20.5c2.67-2 5.33-2 8 0s5.33 2 8 0 5.33-2 8 0 5.33 2 8 0 5.33-2 8 0" stroke="#0CC" stroke-linecap="round" stroke-linejoin="round"/></g><path d="M5 20.5c2.67-2 5.33-2 8 0s5.33 2 8 0 5.33-2 8 0 5.33 2 8 0 5.33-2 8 0" stroke="#0CC" stroke-linecap="round" stroke-linejoin="round"/><path d="M5 20.5c2.67-2 5.33-2 8 0s5.33 2 8 0 5.33-2 8 0 5.33 2 8 0 5.33-2 8 0" stroke="#fff" stroke-width=".5" stroke-linecap="round" stroke-linejoin="round"/><g filter="url(#g)" stroke="#4C4CFF"><ellipse rx="1" ry=".75" transform="scale(1 -1) rotate(-27.69 -72 -56.99)"/><ellipse cx="33.71" cy="11.35" rx="1.5" ry="1" transform="rotate(15 33.7 11.35)"/><ellipse rx="1" ry=".75" transform="scale(1 -1) rotate(15 167.43 98.35)"/><ellipse cx="23.5" cy="12" rx="1.5" ry="1" transform="rotate(180 23.5 12)"/><ellipse cx="27.71" cy="8.35" rx="1.5" ry="1" transform="rotate(15 27.7 8.35)"/><ellipse rx="1" ry=".75" transform="matrix(1 0 0 -1 25 41.75)"/><ellipse cx="16.79" cy="10.58" rx="1.5" ry="1" transform="rotate(-27.69 16.8 10.58)"/></g><g filter="url(#h)" stroke="#4C4CFF"><ellipse rx="1" ry=".75" transform="scale(1 -1) rotate(-27.69 -72 -56.99)"/><ellipse cx="33.71" cy="11.35" rx="1.5" ry="1" transform="rotate(15 33.7 11.35)"/><ellipse rx="1" ry=".75" transform="scale(1 -1) rotate(15 167.43 98.35)"/><ellipse cx="23.5" cy="12" rx="1.5" ry="1" transform="rotate(180 23.5 12)"/><ellipse cx="27.71" cy="8.35" rx="1.5" ry="1" transform="rotate(15 27.7 8.35)"/><ellipse rx="1" ry=".75" transform="matrix(1 0 0 -1 25 41.75)"/><ellipse cx="16.79" cy="10.58" rx="1.5" ry="1" transform="rotate(-27.69 16.8 10.58)"/></g><ellipse rx="1" ry=".75" transform="scale(1 -1) rotate(-27.69 -72 -56.99)" stroke="#4C4CFF"/><ellipse cx="33.71" cy="11.35" rx="1.5" ry="1" transform="rotate(15 33.7 11.35)" stroke="#4C4CFF"/><ellipse rx="1" ry=".75" transform="scale(1 -1) rotate(15 167.43 98.35)" stroke="#4C4CFF"/><ellipse cx="23.5" cy="12" rx="1.5" ry="1" transform="rotate(180 23.5 12)" stroke="#4C4CFF"/><ellipse cx="27.71" cy="8.35" rx="1.5" ry="1" transform="rotate(15 27.7 8.35)" stroke="#4C4CFF"/><ellipse rx="1" ry=".75" transform="matrix(1 0 0 -1 25 41.75)" stroke="#4C4CFF"/><ellipse cx="16.79" cy="10.58" rx="1.5" ry="1" transform="rotate(-27.69 16.8 10.58)" stroke="#4C4CFF"/><ellipse rx="1" ry=".75" transform="scale(1 -1) rotate(-27.69 -72 -56.99)" stroke="#fff" stroke-width=".5"/><ellipse cx="33.71" cy="11.35" rx="1.5" ry="1" transform="rotate(15 33.7 11.35)" stroke="#fff" stroke-width=".5"/><ellipse rx="1" ry=".75" transform="scale(1 -1) rotate(15 167.43 98.35)" stroke="#fff" stroke-width=".5"/><ellipse cx="23.5" cy="12" rx="1.5" ry="1" transform="rotate(180 23.5 12)" stroke="#fff" stroke-width=".5"/><ellipse cx="27.71" cy="8.35" rx="1.5" ry="1" transform="rotate(15 27.7 8.35)" stroke="#fff" stroke-width=".5"/><ellipse rx="1" ry=".75" transform="matrix(1 0 0 -1 25 41.75)" stroke="#fff" stroke-width=".5"/><ellipse cx="16.79" cy="10.58" rx="1.5" ry="1" transform="rotate(-27.69 16.8 10.58)" stroke="#fff" stroke-width=".5"/><defs><filter id="a" x="3.01" y=".5" width="43.32" height="49" filterUnits="userSpaceOnUse" color-interpolation-filters="sRGB"><feFlood flood-opacity="0" result="BackgroundImageFix"/><feBlend in="SourceGraphic" in2="BackgroundImageFix" result="shape"/><feGaussianBlur stdDeviation="2" result="effect1_foregroundBlur_33536_2073"/></filter><filter id="b" x="3.01" y=".5" width="43.32" height="49" filterUnits="userSpaceOnUse" color-interpolation-filters="sRGB"><feFlood flood-opacity="0" result="BackgroundImageFix"/><feBlend in="SourceGraphic" in2="BackgroundImageFix" result="shape"/><feGaussianBlur stdDeviation="2" result="effect1_foregroundBlur_33536_2073"/></filter><filter id="c" x=".58" y="20" width="48.79" height="17.01" filterUnits="userSpaceOnUse" color-interpolation-filters="sRGB"><feFlood flood-opacity="0" result="BackgroundImageFix"/><feBlend in="SourceGraphic" in2="BackgroundImageFix" result="shape"/><feGaussianBlur stdDeviation="2" result="effect1_foregroundBlur_33536_2073"/></filter><filter id="d" x=".58" y="20" width="48.79" height="17.01" filterUnits="userSpaceOnUse" color-interpolation-filters="sRGB"><feFlood flood-opacity="0" result="BackgroundImageFix"/><feBlend in="SourceGraphic" in2="BackgroundImageFix" result="shape"/><feGaussianBlur stdDeviation="2" result="effect1_foregroundBlur_33536_2073"/></filter><filter id="e" x=".5" y="14.5" width="49" height="12" filterUnits="userSpaceOnUse" color-interpolation-filters="sRGB"><feFlood flood-opacity="0" result="BackgroundImageFix"/><feBlend in="SourceGraphic" in2="BackgroundImageFix" result="shape"/><feGaussianBlur stdDeviation="2" result="effect1_foregroundBlur_33536_2073"/></filter><filter id="f" x=".5" y="14.5" width="49" height="12" filterUnits="userSpaceOnUse" color-interpolation-filters="sRGB"><feFlood flood-opacity="0" result="BackgroundImageFix"/><feBlend in="SourceGraphic" in2="BackgroundImageFix" result="shape"/><feGaussianBlur stdDeviation="2" result="effect1_foregroundBlur_33536_2073"/></filter><filter id="g" x="10.89" y="2.81" width="28.8" height="44.19" filterUnits="userSpaceOnUse" color-interpolation-filters="sRGB"><feFlood flood-opacity="0" result="BackgroundImageFix"/><feBlend in="SourceGraphic" in2="BackgroundImageFix" result="shape"/><feGaussianBlur stdDeviation="2" result="effect1_foregroundBlur_33536_2073"/></filter><filter id="h" x="10.89" y="2.81" width="28.8" height="44.19" filterUnits="userSpaceOnUse" color-interpolation-filters="sRGB"><feFlood flood-opacity="0" result="BackgroundImageFix"/><feBlend in="SourceGraphic" in2="BackgroundImageFix" result="shape"/><feGaussianBlur stdDeviation="2" result="effect1_foregroundBlur_33536_2073"/></filter></defs></svg>